<?xml version="1.0" standalone="no"?>
<!DOCTYPE svg PUBLIC "-//W3C//DTD SVG 20010904//EN"
 "http://www.w3.org/TR/2001/REC-SVG-20010904/DTD/svg10.dtd">
<svg version="1.0" xmlns="http://www.w3.org/2000/svg"
 width="1481.000000pt" height="437.000000pt" viewBox="0 0 1481.000000 437.000000"
 preserveAspectRatio="xMidYMid meet">
<metadata>
Created by potrace 1.16, written by Peter Selinger 2001-2019
</metadata>
<g transform="translate(0.000000,437.000000) scale(0.100000,-0.100000)"
fill="#000000" stroke="none">
<path d="M3320 4060 c-223 -29 -372 -259 -304 -471 65 -203 269 -312 471 -253
151 44 246 154 272 318 22 133 -71 306 -200 372 -38 19 -158 48 -179 43 -3 -1
-30 -5 -60 -9z"/>
<path d="M12690 3080 c-456 -37 -846 -258 -1088 -618 -103 -154 -160 -297
-202 -512 -16 -81 -22 -351 -11 -470 38 -408 238 -749 580 -985 109 -76 301
-163 409 -185 24 -6 47 -12 53 -15 23 -15 258 -46 379 -51 191 -8 436 31 620
99 77 28 218 100 275 140 22 15 57 39 77 52 56 37 207 191 266 270 79 107 161
274 205 420 98 322 64 797 -76 1085 -105 215 -270 400 -475 533 -302 197 -610
268 -1012 237z m380 -701 c245 -74 399 -233 471 -489 21 -73 24 -105 23 -235
0 -134 -3 -159 -27 -235 -64 -203 -173 -333 -356 -426 -133 -68 -314 -89 -488
-59 -116 21 -272 90 -343 153 -95 84 -188 247 -210 371 -28 159 -30 231 -10
350 27 165 70 263 162 373 94 112 266 199 433 218 102 12 269 2 345 -21z"/>
<path d="M365 3053 c-12 -31 -5 -2765 7 -2780 8 -11 158 -13 764 -12 l753 1
24 52 c41 84 67 146 67 157 0 5 8 29 18 52 31 71 223 554 267 672 13 33 37 96
55 140 17 44 47 121 67 170 19 50 43 109 54 133 10 23 19 48 19 54 0 6 8 29
19 52 49 109 61 137 61 147 0 5 8 29 18 52 26 60 43 102 111 277 33 85 108
277 166 425 58 149 111 284 117 300 17 45 26 51 37 22 7 -17 10 -499 11 -1354
0 -896 4 -1331 11 -1338 6 -6 136 -10 370 -10 345 0 361 1 375 19 12 17 14
222 14 1386 0 1312 -1 1368 -18 1383 -17 16 -83 17 -744 17 -805 0 -752 4
-776 -65 -6 -16 -36 -91 -67 -165 -31 -74 -81 -198 -111 -274 -31 -76 -60
-146 -65 -155 -5 -9 -29 -68 -54 -131 -25 -63 -49 -124 -54 -135 -20 -48 -36
-85 -67 -165 -19 -47 -39 -94 -44 -105 -5 -11 -39 -92 -74 -180 -35 -88 -94
-232 -131 -320 -36 -88 -84 -205 -106 -260 -47 -115 -86 -211 -99 -240 -5 -11
-30 -72 -55 -135 -25 -63 -52 -128 -60 -145 -8 -16 -26 -61 -40 -100 -39 -104
-68 -156 -80 -144 -7 7 -11 458 -13 1352 -2 1243 -3 1343 -19 1355 -13 9 -103
12 -369 12 -326 0 -352 -1 -359 -17z"/>
<path d="M5410 3063 c-1288 -3 -1386 -4 -1397 -20 -10 -13 -13 -93 -13 -320 0
-290 1 -304 20 -323 19 -19 33 -20 504 -20 398 0 486 -2 495 -14 8 -10 11
-285 11 -1037 0 -923 1 -1027 16 -1047 l16 -23 341 1 c278 2 346 4 365 16 l22
14 0 1033 c0 790 3 1036 12 1045 9 9 136 12 510 12 l498 0 15 24 c14 21 16 66
14 322 0 165 -5 306 -10 315 -5 9 -14 18 -21 20 -7 2 -636 3 -1398 2z"/>
<path d="M7086 3054 c-3 -9 -6 -636 -6 -1395 l0 -1379 24 -10 c35 -13 691 -13
716 0 20 11 20 22 20 1106 0 995 1 1096 16 1090 9 -3 19 -6 24 -6 4 0 11 -15
14 -34 4 -19 40 -119 81 -223 41 -103 84 -213 96 -243 12 -30 30 -74 40 -97
11 -23 19 -46 19 -52 0 -5 7 -22 15 -38 8 -15 31 -71 51 -123 20 -52 83 -214
140 -360 58 -146 119 -301 136 -345 71 -184 121 -312 133 -340 7 -16 29 -73
49 -125 71 -180 83 -204 109 -211 14 -4 183 -7 377 -8 389 -2 386 -3 409 61 7
18 26 65 42 103 15 39 58 147 94 240 96 248 96 246 116 291 10 23 19 48 19 56
0 8 7 23 15 34 8 10 15 25 15 32 0 8 6 28 14 45 14 29 45 108 169 427 25 63
79 203 122 310 42 107 95 242 117 300 22 58 47 119 54 135 7 17 26 63 41 103
23 62 35 80 45 70 2 -2 5 -493 8 -1091 4 -983 7 -1090 21 -1100 23 -17 680
-23 720 -7 l29 12 0 1384 c0 1357 0 1383 -19 1394 -13 6 -231 10 -638 10 -697
0 -650 6 -678 -80 -9 -27 -21 -52 -26 -55 -5 -4 -9 -14 -9 -23 0 -10 -9 -34
-20 -55 -11 -20 -20 -42 -20 -48 0 -6 -7 -25 -14 -42 -8 -18 -33 -77 -56 -132
-63 -154 -167 -406 -225 -550 -29 -71 -67 -164 -85 -205 -17 -41 -35 -87 -39
-101 -5 -14 -13 -34 -19 -45 -9 -18 -20 -43 -73 -176 -12 -29 -27 -66 -35 -83
-34 -76 -64 -156 -64 -169 0 -15 -29 -36 -49 -36 -5 0 -14 15 -20 33 -5 17
-44 115 -86 217 -42 102 -101 246 -131 320 -30 74 -59 144 -64 155 -5 11 -21
49 -35 85 -14 36 -30 74 -35 85 -9 20 -65 158 -100 245 -10 25 -41 101 -70
170 -29 69 -83 202 -121 295 -50 125 -74 173 -91 182 -18 10 -172 13 -649 13
-563 0 -627 -2 -633 -16z"/>
</g>
</svg>
